G75*
%MOIN*%
%OFA0B0*%
%FSLAX25Y25*%
%IPPOS*%
%LPD*%
%AMOC8*
5,1,8,0,0,1.08239X$1,22.5*
%
%ADD10C,0.00000*%
%ADD11C,0.00300*%
%ADD12C,0.00200*%
%ADD13C,0.00400*%
%ADD14C,0.00800*%
%ADD15C,0.00500*%
%ADD16R,0.05512X0.02559*%
%ADD17R,0.02559X0.05512*%
%ADD18C,0.00060*%
%ADD19C,0.00600*%
D10*
X0004162Y0004162D02*
X0004162Y0114123D01*
X0137863Y0114123D01*
X0137863Y0004162D01*
X0004162Y0004162D01*
D11*
X0010631Y0019312D02*
X0011599Y0019312D01*
X0011115Y0019312D02*
X0011115Y0022215D01*
X0010631Y0022215D02*
X0011599Y0022215D01*
X0012595Y0022215D02*
X0014530Y0019312D01*
X0014530Y0022215D01*
X0015542Y0020763D02*
X0017477Y0020763D01*
X0016509Y0021731D02*
X0016509Y0019796D01*
X0012595Y0019312D02*
X0012595Y0022215D01*
X0071515Y0105145D02*
X0071515Y0108047D01*
X0070063Y0108047D01*
X0069580Y0107563D01*
X0069580Y0106596D01*
X0070063Y0106112D01*
X0071515Y0106112D01*
X0072526Y0106112D02*
X0073977Y0106112D01*
X0074461Y0106596D01*
X0074461Y0107563D01*
X0073977Y0108047D01*
X0072526Y0108047D01*
X0072526Y0109015D02*
X0072526Y0106112D01*
X0075473Y0106596D02*
X0075473Y0108047D01*
X0075473Y0106596D02*
X0075956Y0106112D01*
X0076440Y0106596D01*
X0076924Y0106112D01*
X0077408Y0106596D01*
X0077408Y0108047D01*
X0078419Y0107563D02*
X0078903Y0108047D01*
X0079870Y0108047D01*
X0080354Y0107563D01*
X0080354Y0107080D01*
X0078419Y0107080D01*
X0078419Y0107563D02*
X0078419Y0106596D01*
X0078903Y0106112D01*
X0079870Y0106112D01*
X0081366Y0106112D02*
X0082817Y0106112D01*
X0083301Y0106596D01*
X0083301Y0107563D01*
X0082817Y0108047D01*
X0081366Y0108047D01*
X0081366Y0109015D02*
X0081366Y0106112D01*
X0068583Y0106112D02*
X0067615Y0106112D01*
X0068099Y0106112D02*
X0068099Y0109015D01*
X0067615Y0109015D01*
X0027339Y0108401D02*
X0025404Y0108401D01*
X0024393Y0106950D02*
X0024393Y0109852D01*
X0022458Y0109852D02*
X0024393Y0106950D01*
X0022458Y0106950D02*
X0022458Y0109852D01*
X0021461Y0109852D02*
X0020493Y0109852D01*
X0020977Y0109852D02*
X0020977Y0106950D01*
X0020493Y0106950D02*
X0021461Y0106950D01*
X0124312Y0100412D02*
X0124312Y0098477D01*
X0124796Y0097993D01*
X0125763Y0097993D01*
X0126247Y0098477D01*
X0126247Y0100412D01*
X0125763Y0100896D01*
X0124796Y0100896D01*
X0124312Y0100412D01*
X0127259Y0100896D02*
X0127259Y0098477D01*
X0127742Y0097993D01*
X0128710Y0097993D01*
X0129194Y0098477D01*
X0129194Y0100896D01*
X0130205Y0100896D02*
X0132140Y0100896D01*
X0131173Y0100896D02*
X0131173Y0097993D01*
X0133152Y0099445D02*
X0135087Y0099445D01*
X0134119Y0100412D02*
X0134119Y0098477D01*
X0132632Y0020345D02*
X0130697Y0020345D01*
X0131665Y0020345D02*
X0131665Y0017442D01*
X0133644Y0018893D02*
X0135579Y0018893D01*
X0129686Y0017926D02*
X0129686Y0020345D01*
X0127751Y0020345D02*
X0127751Y0017926D01*
X0128235Y0017442D01*
X0129202Y0017442D01*
X0129686Y0017926D01*
X0126739Y0017926D02*
X0126739Y0019861D01*
X0126256Y0020345D01*
X0125288Y0020345D01*
X0124804Y0019861D01*
X0124804Y0017926D01*
X0125288Y0017442D01*
X0126256Y0017442D01*
X0126739Y0017926D01*
D12*
X0047784Y0053552D02*
X0047786Y0053640D01*
X0047792Y0053728D01*
X0047802Y0053816D01*
X0047816Y0053904D01*
X0047833Y0053990D01*
X0047855Y0054076D01*
X0047880Y0054160D01*
X0047910Y0054244D01*
X0047942Y0054326D01*
X0047979Y0054406D01*
X0048019Y0054485D01*
X0048063Y0054562D01*
X0048110Y0054637D01*
X0048160Y0054709D01*
X0048214Y0054780D01*
X0048270Y0054847D01*
X0048330Y0054913D01*
X0048392Y0054975D01*
X0048458Y0055035D01*
X0048525Y0055091D01*
X0048596Y0055145D01*
X0048668Y0055195D01*
X0048743Y0055242D01*
X0048820Y0055286D01*
X0048899Y0055326D01*
X0048979Y0055363D01*
X0049061Y0055395D01*
X0049145Y0055425D01*
X0049229Y0055450D01*
X0049315Y0055472D01*
X0049401Y0055489D01*
X0049489Y0055503D01*
X0049577Y0055513D01*
X0049665Y0055519D01*
X0049753Y0055521D01*
X0049841Y0055519D01*
X0049929Y0055513D01*
X0050017Y0055503D01*
X0050105Y0055489D01*
X0050191Y0055472D01*
X0050277Y0055450D01*
X0050361Y0055425D01*
X0050445Y0055395D01*
X0050527Y0055363D01*
X0050607Y0055326D01*
X0050686Y0055286D01*
X0050763Y0055242D01*
X0050838Y0055195D01*
X0050910Y0055145D01*
X0050981Y0055091D01*
X0051048Y0055035D01*
X0051114Y0054975D01*
X0051176Y0054913D01*
X0051236Y0054847D01*
X0051292Y0054780D01*
X0051346Y0054709D01*
X0051396Y0054637D01*
X0051443Y0054562D01*
X0051487Y0054485D01*
X0051527Y0054406D01*
X0051564Y0054326D01*
X0051596Y0054244D01*
X0051626Y0054160D01*
X0051651Y0054076D01*
X0051673Y0053990D01*
X0051690Y0053904D01*
X0051704Y0053816D01*
X0051714Y0053728D01*
X0051720Y0053640D01*
X0051722Y0053552D01*
X0051720Y0053464D01*
X0051714Y0053376D01*
X0051704Y0053288D01*
X0051690Y0053200D01*
X0051673Y0053114D01*
X0051651Y0053028D01*
X0051626Y0052944D01*
X0051596Y0052860D01*
X0051564Y0052778D01*
X0051527Y0052698D01*
X0051487Y0052619D01*
X0051443Y0052542D01*
X0051396Y0052467D01*
X0051346Y0052395D01*
X0051292Y0052324D01*
X0051236Y0052257D01*
X0051176Y0052191D01*
X0051114Y0052129D01*
X0051048Y0052069D01*
X0050981Y0052013D01*
X0050910Y0051959D01*
X0050838Y0051909D01*
X0050763Y0051862D01*
X0050686Y0051818D01*
X0050607Y0051778D01*
X0050527Y0051741D01*
X0050445Y0051709D01*
X0050361Y0051679D01*
X0050277Y0051654D01*
X0050191Y0051632D01*
X0050105Y0051615D01*
X0050017Y0051601D01*
X0049929Y0051591D01*
X0049841Y0051585D01*
X0049753Y0051583D01*
X0049665Y0051585D01*
X0049577Y0051591D01*
X0049489Y0051601D01*
X0049401Y0051615D01*
X0049315Y0051632D01*
X0049229Y0051654D01*
X0049145Y0051679D01*
X0049061Y0051709D01*
X0048979Y0051741D01*
X0048899Y0051778D01*
X0048820Y0051818D01*
X0048743Y0051862D01*
X0048668Y0051909D01*
X0048596Y0051959D01*
X0048525Y0052013D01*
X0048458Y0052069D01*
X0048392Y0052129D01*
X0048330Y0052191D01*
X0048270Y0052257D01*
X0048214Y0052324D01*
X0048160Y0052395D01*
X0048110Y0052467D01*
X0048063Y0052542D01*
X0048019Y0052619D01*
X0047979Y0052698D01*
X0047942Y0052778D01*
X0047910Y0052860D01*
X0047880Y0052944D01*
X0047855Y0053028D01*
X0047833Y0053114D01*
X0047816Y0053200D01*
X0047802Y0053288D01*
X0047792Y0053376D01*
X0047786Y0053464D01*
X0047784Y0053552D01*
X0069994Y0087842D02*
X0071462Y0087842D01*
X0070728Y0087842D02*
X0069994Y0088576D01*
X0069994Y0088943D01*
X0070361Y0089684D02*
X0069994Y0090051D01*
X0069994Y0090785D01*
X0070361Y0091152D01*
X0070728Y0091152D01*
X0070728Y0089684D01*
X0071095Y0089684D02*
X0070361Y0089684D01*
X0071095Y0089684D02*
X0071462Y0090051D01*
X0071462Y0090785D01*
X0069994Y0091894D02*
X0071462Y0092628D01*
X0069994Y0093362D01*
X0071095Y0094104D02*
X0071095Y0094471D01*
X0071462Y0094471D01*
X0071462Y0094104D01*
X0071095Y0094104D01*
X0071462Y0097419D02*
X0071462Y0098886D01*
X0071462Y0098153D02*
X0069260Y0098153D01*
X0069994Y0097419D01*
X0071095Y0099628D02*
X0071095Y0099995D01*
X0071462Y0099995D01*
X0071462Y0099628D01*
X0071095Y0099628D01*
X0071095Y0100733D02*
X0069627Y0100733D01*
X0069260Y0101100D01*
X0069260Y0101834D01*
X0069627Y0102201D01*
X0071095Y0100733D01*
X0071462Y0101100D01*
X0071462Y0101834D01*
X0071095Y0102201D01*
X0069627Y0102201D01*
D13*
X0067885Y0084646D02*
X0067885Y0081577D01*
X0065583Y0083879D01*
X0070187Y0083879D01*
X0070187Y0080043D02*
X0068652Y0078508D01*
X0068652Y0079275D02*
X0068652Y0076973D01*
X0070187Y0076973D02*
X0065583Y0076973D01*
X0065583Y0079275D01*
X0066350Y0080043D01*
X0067885Y0080043D01*
X0068652Y0079275D01*
X0069609Y0063535D02*
X0069609Y0060466D01*
X0067307Y0062768D01*
X0071911Y0062768D01*
X0071144Y0058931D02*
X0071911Y0058164D01*
X0071911Y0056630D01*
X0071144Y0055862D01*
X0068074Y0055862D01*
X0067307Y0056630D01*
X0067307Y0058164D01*
X0068074Y0058931D01*
X0049824Y0071492D02*
X0049057Y0070724D01*
X0045988Y0070724D01*
X0045220Y0071492D01*
X0045220Y0073026D01*
X0045988Y0073794D01*
X0045220Y0075328D02*
X0047522Y0075328D01*
X0046755Y0076863D01*
X0046755Y0077630D01*
X0047522Y0078398D01*
X0049057Y0078398D01*
X0049824Y0077630D01*
X0049824Y0076096D01*
X0049057Y0075328D01*
X0049057Y0073794D02*
X0049824Y0073026D01*
X0049824Y0071492D01*
X0045220Y0075328D02*
X0045220Y0078398D01*
X0034962Y0075268D02*
X0034962Y0073733D01*
X0034195Y0072966D01*
X0034195Y0071431D02*
X0034962Y0070664D01*
X0034962Y0069130D01*
X0034195Y0068362D01*
X0031126Y0068362D01*
X0030358Y0069130D01*
X0030358Y0070664D01*
X0031126Y0071431D01*
X0031126Y0072966D02*
X0030358Y0073733D01*
X0030358Y0075268D01*
X0031126Y0076035D01*
X0031893Y0076035D01*
X0032660Y0075268D01*
X0033428Y0076035D01*
X0034195Y0076035D01*
X0034962Y0075268D01*
X0032660Y0075268D02*
X0032660Y0074501D01*
X0016919Y0072284D02*
X0016919Y0069215D01*
X0016919Y0070750D02*
X0012315Y0070750D01*
X0013850Y0069215D01*
X0014617Y0067680D02*
X0013082Y0067680D01*
X0012315Y0066913D01*
X0012315Y0064611D01*
X0016919Y0064611D01*
X0015384Y0064611D02*
X0015384Y0066913D01*
X0014617Y0067680D01*
X0015384Y0066146D02*
X0016919Y0067680D01*
X0016919Y0081206D02*
X0012315Y0081206D01*
X0012315Y0083507D01*
X0013082Y0084275D01*
X0014617Y0084275D01*
X0015384Y0083507D01*
X0015384Y0081206D01*
X0015384Y0082740D02*
X0016919Y0084275D01*
X0016919Y0085809D02*
X0013850Y0088879D01*
X0013082Y0088879D01*
X0012315Y0088111D01*
X0012315Y0086577D01*
X0013082Y0085809D01*
X0016919Y0085809D02*
X0016919Y0088879D01*
X0039198Y0107724D02*
X0039198Y0112328D01*
X0041500Y0112328D01*
X0042267Y0111561D01*
X0042267Y0110026D01*
X0041500Y0109259D01*
X0039198Y0109259D01*
X0040732Y0109259D02*
X0042267Y0107724D01*
X0043802Y0108492D02*
X0044569Y0107724D01*
X0046104Y0107724D01*
X0046871Y0108492D01*
X0046871Y0109259D01*
X0046104Y0110026D01*
X0045336Y0110026D01*
X0046104Y0110026D02*
X0046871Y0110794D01*
X0046871Y0111561D01*
X0046104Y0112328D01*
X0044569Y0112328D01*
X0043802Y0111561D01*
X0104539Y0044694D02*
X0104539Y0040091D01*
X0107609Y0040091D01*
X0109143Y0040091D02*
X0112213Y0040091D01*
X0110678Y0040091D02*
X0110678Y0044694D01*
X0109143Y0043160D01*
X0114322Y0020186D02*
X0113555Y0019418D01*
X0113555Y0017884D01*
X0114322Y0017117D01*
X0114322Y0015582D02*
X0113555Y0014815D01*
X0113555Y0013280D01*
X0114322Y0012513D01*
X0117392Y0012513D01*
X0118159Y0013280D01*
X0118159Y0014815D01*
X0117392Y0015582D01*
X0118159Y0017117D02*
X0115090Y0020186D01*
X0114322Y0020186D01*
X0118159Y0020186D02*
X0118159Y0017117D01*
X0073238Y0013466D02*
X0073238Y0011931D01*
X0072470Y0011164D01*
X0070936Y0011164D02*
X0070169Y0012698D01*
X0070169Y0013466D01*
X0070936Y0014233D01*
X0072470Y0014233D01*
X0073238Y0013466D01*
X0070936Y0011164D02*
X0068634Y0011164D01*
X0068634Y0014233D01*
X0063691Y0014982D02*
X0059087Y0014982D01*
X0060621Y0013447D01*
X0059854Y0011913D02*
X0059087Y0011145D01*
X0059087Y0009611D01*
X0059854Y0008843D01*
X0062923Y0008843D01*
X0063691Y0009611D01*
X0063691Y0011145D01*
X0062923Y0011913D01*
X0063691Y0013447D02*
X0063691Y0016517D01*
X0069401Y0009629D02*
X0068634Y0008862D01*
X0068634Y0006560D01*
X0073238Y0006560D01*
X0071703Y0006560D02*
X0071703Y0008862D01*
X0070936Y0009629D01*
X0069401Y0009629D01*
X0071703Y0008094D02*
X0073238Y0009629D01*
X0031970Y0016087D02*
X0027366Y0016087D01*
X0027366Y0018389D01*
X0028133Y0019156D01*
X0029668Y0019156D01*
X0030435Y0018389D01*
X0030435Y0016087D01*
X0030435Y0017621D02*
X0031970Y0019156D01*
X0031203Y0020691D02*
X0029668Y0020691D01*
X0029668Y0022992D01*
X0030435Y0023760D01*
X0031203Y0023760D01*
X0031970Y0022992D01*
X0031970Y0021458D01*
X0031203Y0020691D01*
X0029668Y0020691D02*
X0028133Y0022225D01*
X0027366Y0023760D01*
D14*
X0078454Y0029320D02*
X0078454Y0011209D01*
X0080225Y0011209D01*
X0088099Y0011209D02*
X0089871Y0011209D01*
X0089871Y0029320D01*
X0088099Y0029320D01*
X0088099Y0032765D02*
X0080225Y0032765D01*
X0080225Y0029320D02*
X0078454Y0029320D01*
D15*
X0090511Y0021148D02*
X0092412Y0021148D01*
X0092412Y0020515D02*
X0092412Y0021782D01*
X0091144Y0020515D02*
X0090511Y0021148D01*
X0090828Y0019572D02*
X0090511Y0019255D01*
X0090511Y0018305D01*
X0092412Y0018305D01*
X0092412Y0019255D01*
X0092095Y0019572D01*
X0090828Y0019572D01*
X0083040Y0048040D02*
X0083040Y0059851D01*
X0083040Y0048040D02*
X0130284Y0048040D01*
X0130284Y0059851D01*
X0130284Y0083473D02*
X0130284Y0095284D01*
X0083040Y0095284D01*
X0083040Y0083473D01*
D16*
X0060211Y0082464D03*
X0060211Y0088264D03*
X0020625Y0090134D03*
X0020625Y0084334D03*
X0020625Y0073539D03*
X0020625Y0067739D03*
X0069444Y0026807D03*
X0069444Y0021007D03*
X0036164Y0021766D03*
X0036164Y0015966D03*
D17*
X0037326Y0104019D03*
X0043126Y0104019D03*
D18*
X0034881Y0059273D02*
X0034881Y0058733D01*
X0034880Y0058733D02*
X0034827Y0058729D01*
X0034775Y0058721D01*
X0034723Y0058709D01*
X0034672Y0058693D01*
X0034623Y0058674D01*
X0034575Y0058651D01*
X0034529Y0058624D01*
X0034485Y0058594D01*
X0034444Y0058561D01*
X0034405Y0058525D01*
X0034369Y0058486D01*
X0034336Y0058445D01*
X0034306Y0058401D01*
X0034279Y0058355D01*
X0034256Y0058307D01*
X0034237Y0058258D01*
X0034221Y0058207D01*
X0034209Y0058155D01*
X0034201Y0058103D01*
X0034197Y0058050D01*
X0033657Y0058049D01*
X0033656Y0058050D01*
X0033660Y0058118D01*
X0033667Y0058186D01*
X0033678Y0058253D01*
X0033692Y0058320D01*
X0033710Y0058386D01*
X0033732Y0058450D01*
X0033757Y0058514D01*
X0033786Y0058576D01*
X0033818Y0058636D01*
X0033853Y0058694D01*
X0033891Y0058751D01*
X0033932Y0058805D01*
X0033976Y0058857D01*
X0034023Y0058907D01*
X0034073Y0058954D01*
X0034125Y0058998D01*
X0034179Y0059039D01*
X0034236Y0059077D01*
X0034294Y0059112D01*
X0034354Y0059144D01*
X0034416Y0059173D01*
X0034480Y0059198D01*
X0034544Y0059220D01*
X0034610Y0059238D01*
X0034677Y0059252D01*
X0034744Y0059263D01*
X0034812Y0059270D01*
X0034880Y0059274D01*
X0034880Y0059218D01*
X0034813Y0059214D01*
X0034746Y0059207D01*
X0034679Y0059196D01*
X0034613Y0059181D01*
X0034548Y0059162D01*
X0034485Y0059140D01*
X0034422Y0059114D01*
X0034361Y0059085D01*
X0034302Y0059052D01*
X0034245Y0059017D01*
X0034190Y0058978D01*
X0034137Y0058936D01*
X0034087Y0058891D01*
X0034039Y0058843D01*
X0033994Y0058793D01*
X0033952Y0058740D01*
X0033913Y0058685D01*
X0033878Y0058628D01*
X0033845Y0058569D01*
X0033816Y0058508D01*
X0033790Y0058445D01*
X0033768Y0058382D01*
X0033749Y0058317D01*
X0033734Y0058251D01*
X0033723Y0058184D01*
X0033716Y0058117D01*
X0033712Y0058050D01*
X0033768Y0058050D01*
X0033772Y0058117D01*
X0033780Y0058183D01*
X0033791Y0058249D01*
X0033806Y0058313D01*
X0033825Y0058377D01*
X0033848Y0058440D01*
X0033874Y0058501D01*
X0033904Y0058561D01*
X0033938Y0058619D01*
X0033974Y0058674D01*
X0034014Y0058728D01*
X0034057Y0058779D01*
X0034102Y0058828D01*
X0034151Y0058873D01*
X0034202Y0058916D01*
X0034256Y0058956D01*
X0034311Y0058992D01*
X0034369Y0059026D01*
X0034429Y0059056D01*
X0034490Y0059082D01*
X0034553Y0059105D01*
X0034617Y0059124D01*
X0034681Y0059139D01*
X0034747Y0059150D01*
X0034813Y0059158D01*
X0034880Y0059162D01*
X0034880Y0059106D01*
X0034817Y0059102D01*
X0034754Y0059095D01*
X0034692Y0059084D01*
X0034630Y0059069D01*
X0034569Y0059051D01*
X0034510Y0059030D01*
X0034452Y0059005D01*
X0034395Y0058976D01*
X0034340Y0058945D01*
X0034287Y0058910D01*
X0034237Y0058872D01*
X0034188Y0058831D01*
X0034142Y0058788D01*
X0034099Y0058742D01*
X0034058Y0058693D01*
X0034020Y0058643D01*
X0033985Y0058590D01*
X0033954Y0058535D01*
X0033925Y0058478D01*
X0033900Y0058420D01*
X0033879Y0058361D01*
X0033861Y0058300D01*
X0033846Y0058238D01*
X0033835Y0058176D01*
X0033828Y0058113D01*
X0033824Y0058050D01*
X0033880Y0058050D01*
X0033884Y0058112D01*
X0033892Y0058174D01*
X0033903Y0058235D01*
X0033918Y0058296D01*
X0033936Y0058355D01*
X0033958Y0058414D01*
X0033984Y0058470D01*
X0034013Y0058526D01*
X0034045Y0058579D01*
X0034080Y0058630D01*
X0034119Y0058679D01*
X0034160Y0058726D01*
X0034204Y0058770D01*
X0034251Y0058811D01*
X0034300Y0058850D01*
X0034351Y0058885D01*
X0034404Y0058917D01*
X0034460Y0058946D01*
X0034516Y0058972D01*
X0034575Y0058994D01*
X0034634Y0059012D01*
X0034695Y0059027D01*
X0034756Y0059038D01*
X0034818Y0059046D01*
X0034880Y0059050D01*
X0034880Y0058994D01*
X0034819Y0058990D01*
X0034758Y0058982D01*
X0034698Y0058971D01*
X0034639Y0058955D01*
X0034580Y0058937D01*
X0034523Y0058914D01*
X0034468Y0058888D01*
X0034414Y0058858D01*
X0034363Y0058826D01*
X0034313Y0058790D01*
X0034266Y0058751D01*
X0034221Y0058709D01*
X0034179Y0058664D01*
X0034140Y0058617D01*
X0034104Y0058567D01*
X0034072Y0058516D01*
X0034042Y0058462D01*
X0034016Y0058407D01*
X0033993Y0058350D01*
X0033975Y0058291D01*
X0033959Y0058232D01*
X0033948Y0058172D01*
X0033940Y0058111D01*
X0033936Y0058050D01*
X0033992Y0058050D01*
X0033996Y0058107D01*
X0034003Y0058165D01*
X0034014Y0058221D01*
X0034029Y0058277D01*
X0034047Y0058332D01*
X0034068Y0058385D01*
X0034092Y0058437D01*
X0034120Y0058488D01*
X0034151Y0058536D01*
X0034185Y0058583D01*
X0034221Y0058627D01*
X0034261Y0058669D01*
X0034303Y0058709D01*
X0034347Y0058745D01*
X0034394Y0058779D01*
X0034442Y0058810D01*
X0034493Y0058838D01*
X0034545Y0058862D01*
X0034598Y0058883D01*
X0034653Y0058901D01*
X0034709Y0058916D01*
X0034765Y0058927D01*
X0034823Y0058934D01*
X0034880Y0058938D01*
X0034880Y0058881D01*
X0034824Y0058878D01*
X0034768Y0058870D01*
X0034713Y0058859D01*
X0034659Y0058845D01*
X0034605Y0058826D01*
X0034553Y0058805D01*
X0034503Y0058780D01*
X0034454Y0058752D01*
X0034408Y0058720D01*
X0034363Y0058686D01*
X0034321Y0058649D01*
X0034281Y0058609D01*
X0034244Y0058567D01*
X0034210Y0058522D01*
X0034178Y0058476D01*
X0034150Y0058427D01*
X0034125Y0058377D01*
X0034104Y0058325D01*
X0034085Y0058271D01*
X0034071Y0058217D01*
X0034060Y0058162D01*
X0034052Y0058106D01*
X0034049Y0058050D01*
X0034105Y0058050D01*
X0034108Y0058105D01*
X0034116Y0058159D01*
X0034127Y0058213D01*
X0034142Y0058265D01*
X0034161Y0058317D01*
X0034183Y0058367D01*
X0034208Y0058416D01*
X0034236Y0058463D01*
X0034268Y0058507D01*
X0034303Y0058550D01*
X0034340Y0058590D01*
X0034380Y0058627D01*
X0034423Y0058662D01*
X0034467Y0058694D01*
X0034514Y0058722D01*
X0034563Y0058747D01*
X0034613Y0058769D01*
X0034665Y0058788D01*
X0034717Y0058803D01*
X0034771Y0058814D01*
X0034825Y0058822D01*
X0034880Y0058825D01*
X0034880Y0058769D01*
X0034827Y0058765D01*
X0034774Y0058758D01*
X0034722Y0058746D01*
X0034671Y0058731D01*
X0034621Y0058712D01*
X0034573Y0058690D01*
X0034526Y0058664D01*
X0034482Y0058636D01*
X0034439Y0058604D01*
X0034399Y0058569D01*
X0034361Y0058531D01*
X0034326Y0058491D01*
X0034294Y0058448D01*
X0034266Y0058404D01*
X0034240Y0058357D01*
X0034218Y0058309D01*
X0034199Y0058259D01*
X0034184Y0058208D01*
X0034172Y0058156D01*
X0034165Y0058103D01*
X0034161Y0058050D01*
X0054667Y0058049D02*
X0054127Y0058049D01*
X0054127Y0058050D02*
X0054123Y0058103D01*
X0054115Y0058155D01*
X0054103Y0058207D01*
X0054087Y0058258D01*
X0054068Y0058307D01*
X0054045Y0058355D01*
X0054018Y0058401D01*
X0053988Y0058445D01*
X0053955Y0058486D01*
X0053919Y0058525D01*
X0053880Y0058561D01*
X0053839Y0058594D01*
X0053795Y0058624D01*
X0053749Y0058651D01*
X0053701Y0058674D01*
X0053652Y0058693D01*
X0053601Y0058709D01*
X0053549Y0058721D01*
X0053497Y0058729D01*
X0053444Y0058733D01*
X0053443Y0059273D01*
X0053444Y0059274D01*
X0053512Y0059270D01*
X0053580Y0059263D01*
X0053647Y0059252D01*
X0053714Y0059238D01*
X0053780Y0059220D01*
X0053844Y0059198D01*
X0053908Y0059173D01*
X0053970Y0059144D01*
X0054030Y0059112D01*
X0054088Y0059077D01*
X0054145Y0059039D01*
X0054199Y0058998D01*
X0054251Y0058954D01*
X0054301Y0058907D01*
X0054348Y0058857D01*
X0054392Y0058805D01*
X0054433Y0058751D01*
X0054471Y0058694D01*
X0054506Y0058636D01*
X0054538Y0058576D01*
X0054567Y0058514D01*
X0054592Y0058450D01*
X0054614Y0058386D01*
X0054632Y0058320D01*
X0054646Y0058253D01*
X0054657Y0058186D01*
X0054664Y0058118D01*
X0054668Y0058050D01*
X0054612Y0058050D01*
X0054608Y0058117D01*
X0054601Y0058184D01*
X0054590Y0058251D01*
X0054575Y0058317D01*
X0054556Y0058382D01*
X0054534Y0058445D01*
X0054508Y0058508D01*
X0054479Y0058569D01*
X0054446Y0058628D01*
X0054411Y0058685D01*
X0054372Y0058740D01*
X0054330Y0058793D01*
X0054285Y0058843D01*
X0054237Y0058891D01*
X0054187Y0058936D01*
X0054134Y0058978D01*
X0054079Y0059017D01*
X0054022Y0059052D01*
X0053963Y0059085D01*
X0053902Y0059114D01*
X0053839Y0059140D01*
X0053776Y0059162D01*
X0053711Y0059181D01*
X0053645Y0059196D01*
X0053578Y0059207D01*
X0053511Y0059214D01*
X0053444Y0059218D01*
X0053444Y0059162D01*
X0053511Y0059158D01*
X0053577Y0059150D01*
X0053643Y0059139D01*
X0053707Y0059124D01*
X0053771Y0059105D01*
X0053834Y0059082D01*
X0053895Y0059056D01*
X0053955Y0059026D01*
X0054013Y0058992D01*
X0054068Y0058956D01*
X0054122Y0058916D01*
X0054173Y0058873D01*
X0054222Y0058828D01*
X0054267Y0058779D01*
X0054310Y0058728D01*
X0054350Y0058674D01*
X0054386Y0058619D01*
X0054420Y0058561D01*
X0054450Y0058501D01*
X0054476Y0058440D01*
X0054499Y0058377D01*
X0054518Y0058313D01*
X0054533Y0058249D01*
X0054544Y0058183D01*
X0054552Y0058117D01*
X0054556Y0058050D01*
X0054500Y0058050D01*
X0054496Y0058113D01*
X0054489Y0058176D01*
X0054478Y0058238D01*
X0054463Y0058300D01*
X0054445Y0058361D01*
X0054424Y0058420D01*
X0054399Y0058478D01*
X0054370Y0058535D01*
X0054339Y0058590D01*
X0054304Y0058643D01*
X0054266Y0058693D01*
X0054225Y0058742D01*
X0054182Y0058788D01*
X0054136Y0058831D01*
X0054087Y0058872D01*
X0054037Y0058910D01*
X0053984Y0058945D01*
X0053929Y0058976D01*
X0053872Y0059005D01*
X0053814Y0059030D01*
X0053755Y0059051D01*
X0053694Y0059069D01*
X0053632Y0059084D01*
X0053570Y0059095D01*
X0053507Y0059102D01*
X0053444Y0059106D01*
X0053444Y0059050D01*
X0053506Y0059046D01*
X0053568Y0059038D01*
X0053629Y0059027D01*
X0053690Y0059012D01*
X0053749Y0058994D01*
X0053808Y0058972D01*
X0053864Y0058946D01*
X0053920Y0058917D01*
X0053973Y0058885D01*
X0054024Y0058850D01*
X0054073Y0058811D01*
X0054120Y0058770D01*
X0054164Y0058726D01*
X0054205Y0058679D01*
X0054244Y0058630D01*
X0054279Y0058579D01*
X0054311Y0058526D01*
X0054340Y0058470D01*
X0054366Y0058414D01*
X0054388Y0058355D01*
X0054406Y0058296D01*
X0054421Y0058235D01*
X0054432Y0058174D01*
X0054440Y0058112D01*
X0054444Y0058050D01*
X0054388Y0058050D01*
X0054384Y0058111D01*
X0054376Y0058172D01*
X0054365Y0058232D01*
X0054349Y0058291D01*
X0054331Y0058350D01*
X0054308Y0058407D01*
X0054282Y0058462D01*
X0054252Y0058516D01*
X0054220Y0058567D01*
X0054184Y0058617D01*
X0054145Y0058664D01*
X0054103Y0058709D01*
X0054058Y0058751D01*
X0054011Y0058790D01*
X0053961Y0058826D01*
X0053910Y0058858D01*
X0053856Y0058888D01*
X0053801Y0058914D01*
X0053744Y0058937D01*
X0053685Y0058955D01*
X0053626Y0058971D01*
X0053566Y0058982D01*
X0053505Y0058990D01*
X0053444Y0058994D01*
X0053444Y0058938D01*
X0053501Y0058934D01*
X0053559Y0058927D01*
X0053615Y0058916D01*
X0053671Y0058901D01*
X0053726Y0058883D01*
X0053779Y0058862D01*
X0053831Y0058838D01*
X0053882Y0058810D01*
X0053930Y0058779D01*
X0053977Y0058745D01*
X0054021Y0058709D01*
X0054063Y0058669D01*
X0054103Y0058627D01*
X0054139Y0058583D01*
X0054173Y0058536D01*
X0054204Y0058488D01*
X0054232Y0058437D01*
X0054256Y0058385D01*
X0054277Y0058332D01*
X0054295Y0058277D01*
X0054310Y0058221D01*
X0054321Y0058165D01*
X0054328Y0058107D01*
X0054332Y0058050D01*
X0054275Y0058050D01*
X0054272Y0058106D01*
X0054264Y0058162D01*
X0054253Y0058217D01*
X0054239Y0058271D01*
X0054220Y0058325D01*
X0054199Y0058377D01*
X0054174Y0058427D01*
X0054146Y0058476D01*
X0054114Y0058522D01*
X0054080Y0058567D01*
X0054043Y0058609D01*
X0054003Y0058649D01*
X0053961Y0058686D01*
X0053916Y0058720D01*
X0053870Y0058752D01*
X0053821Y0058780D01*
X0053771Y0058805D01*
X0053719Y0058826D01*
X0053665Y0058845D01*
X0053611Y0058859D01*
X0053556Y0058870D01*
X0053500Y0058878D01*
X0053444Y0058881D01*
X0053444Y0058825D01*
X0053499Y0058822D01*
X0053553Y0058814D01*
X0053607Y0058803D01*
X0053659Y0058788D01*
X0053711Y0058769D01*
X0053761Y0058747D01*
X0053810Y0058722D01*
X0053857Y0058694D01*
X0053901Y0058662D01*
X0053944Y0058627D01*
X0053984Y0058590D01*
X0054021Y0058550D01*
X0054056Y0058507D01*
X0054088Y0058463D01*
X0054116Y0058416D01*
X0054141Y0058367D01*
X0054163Y0058317D01*
X0054182Y0058265D01*
X0054197Y0058213D01*
X0054208Y0058159D01*
X0054216Y0058105D01*
X0054219Y0058050D01*
X0054163Y0058050D01*
X0054159Y0058103D01*
X0054152Y0058156D01*
X0054140Y0058208D01*
X0054125Y0058259D01*
X0054106Y0058309D01*
X0054084Y0058357D01*
X0054058Y0058404D01*
X0054030Y0058448D01*
X0053998Y0058491D01*
X0053963Y0058531D01*
X0053925Y0058569D01*
X0053885Y0058604D01*
X0053842Y0058636D01*
X0053798Y0058664D01*
X0053751Y0058690D01*
X0053703Y0058712D01*
X0053653Y0058731D01*
X0053602Y0058746D01*
X0053550Y0058758D01*
X0053497Y0058765D01*
X0053444Y0058769D01*
X0053443Y0039051D02*
X0053443Y0039591D01*
X0053444Y0039591D02*
X0053497Y0039595D01*
X0053549Y0039603D01*
X0053601Y0039615D01*
X0053652Y0039631D01*
X0053701Y0039650D01*
X0053749Y0039673D01*
X0053795Y0039700D01*
X0053839Y0039730D01*
X0053880Y0039763D01*
X0053919Y0039799D01*
X0053955Y0039838D01*
X0053988Y0039879D01*
X0054018Y0039923D01*
X0054045Y0039969D01*
X0054068Y0040017D01*
X0054087Y0040066D01*
X0054103Y0040117D01*
X0054115Y0040169D01*
X0054123Y0040221D01*
X0054127Y0040274D01*
X0054667Y0040275D01*
X0054668Y0040274D01*
X0054664Y0040206D01*
X0054657Y0040138D01*
X0054646Y0040071D01*
X0054632Y0040004D01*
X0054614Y0039938D01*
X0054592Y0039874D01*
X0054567Y0039810D01*
X0054538Y0039748D01*
X0054506Y0039688D01*
X0054471Y0039630D01*
X0054433Y0039573D01*
X0054392Y0039519D01*
X0054348Y0039467D01*
X0054301Y0039417D01*
X0054251Y0039370D01*
X0054199Y0039326D01*
X0054145Y0039285D01*
X0054088Y0039247D01*
X0054030Y0039212D01*
X0053970Y0039180D01*
X0053908Y0039151D01*
X0053844Y0039126D01*
X0053780Y0039104D01*
X0053714Y0039086D01*
X0053647Y0039072D01*
X0053580Y0039061D01*
X0053512Y0039054D01*
X0053444Y0039050D01*
X0053444Y0039106D01*
X0053511Y0039110D01*
X0053578Y0039117D01*
X0053645Y0039128D01*
X0053711Y0039143D01*
X0053776Y0039162D01*
X0053839Y0039184D01*
X0053902Y0039210D01*
X0053963Y0039239D01*
X0054022Y0039272D01*
X0054079Y0039307D01*
X0054134Y0039346D01*
X0054187Y0039388D01*
X0054237Y0039433D01*
X0054285Y0039481D01*
X0054330Y0039531D01*
X0054372Y0039584D01*
X0054411Y0039639D01*
X0054446Y0039696D01*
X0054479Y0039755D01*
X0054508Y0039816D01*
X0054534Y0039879D01*
X0054556Y0039942D01*
X0054575Y0040007D01*
X0054590Y0040073D01*
X0054601Y0040140D01*
X0054608Y0040207D01*
X0054612Y0040274D01*
X0054556Y0040274D01*
X0054552Y0040207D01*
X0054544Y0040141D01*
X0054533Y0040075D01*
X0054518Y0040011D01*
X0054499Y0039947D01*
X0054476Y0039884D01*
X0054450Y0039823D01*
X0054420Y0039763D01*
X0054386Y0039705D01*
X0054350Y0039650D01*
X0054310Y0039596D01*
X0054267Y0039545D01*
X0054222Y0039496D01*
X0054173Y0039451D01*
X0054122Y0039408D01*
X0054068Y0039368D01*
X0054013Y0039332D01*
X0053955Y0039298D01*
X0053895Y0039268D01*
X0053834Y0039242D01*
X0053771Y0039219D01*
X0053707Y0039200D01*
X0053643Y0039185D01*
X0053577Y0039174D01*
X0053511Y0039166D01*
X0053444Y0039162D01*
X0053444Y0039218D01*
X0053507Y0039222D01*
X0053570Y0039229D01*
X0053632Y0039240D01*
X0053694Y0039255D01*
X0053755Y0039273D01*
X0053814Y0039294D01*
X0053872Y0039319D01*
X0053929Y0039348D01*
X0053984Y0039379D01*
X0054037Y0039414D01*
X0054087Y0039452D01*
X0054136Y0039493D01*
X0054182Y0039536D01*
X0054225Y0039582D01*
X0054266Y0039631D01*
X0054304Y0039681D01*
X0054339Y0039734D01*
X0054370Y0039789D01*
X0054399Y0039846D01*
X0054424Y0039904D01*
X0054445Y0039963D01*
X0054463Y0040024D01*
X0054478Y0040086D01*
X0054489Y0040148D01*
X0054496Y0040211D01*
X0054500Y0040274D01*
X0054444Y0040274D01*
X0054440Y0040212D01*
X0054432Y0040150D01*
X0054421Y0040089D01*
X0054406Y0040028D01*
X0054388Y0039969D01*
X0054366Y0039910D01*
X0054340Y0039854D01*
X0054311Y0039798D01*
X0054279Y0039745D01*
X0054244Y0039694D01*
X0054205Y0039645D01*
X0054164Y0039598D01*
X0054120Y0039554D01*
X0054073Y0039513D01*
X0054024Y0039474D01*
X0053973Y0039439D01*
X0053920Y0039407D01*
X0053864Y0039378D01*
X0053808Y0039352D01*
X0053749Y0039330D01*
X0053690Y0039312D01*
X0053629Y0039297D01*
X0053568Y0039286D01*
X0053506Y0039278D01*
X0053444Y0039274D01*
X0053444Y0039330D01*
X0053505Y0039334D01*
X0053566Y0039342D01*
X0053626Y0039353D01*
X0053685Y0039369D01*
X0053744Y0039387D01*
X0053801Y0039410D01*
X0053856Y0039436D01*
X0053910Y0039466D01*
X0053961Y0039498D01*
X0054011Y0039534D01*
X0054058Y0039573D01*
X0054103Y0039615D01*
X0054145Y0039660D01*
X0054184Y0039707D01*
X0054220Y0039757D01*
X0054252Y0039808D01*
X0054282Y0039862D01*
X0054308Y0039917D01*
X0054331Y0039974D01*
X0054349Y0040033D01*
X0054365Y0040092D01*
X0054376Y0040152D01*
X0054384Y0040213D01*
X0054388Y0040274D01*
X0054332Y0040274D01*
X0054328Y0040217D01*
X0054321Y0040159D01*
X0054310Y0040103D01*
X0054295Y0040047D01*
X0054277Y0039992D01*
X0054256Y0039939D01*
X0054232Y0039887D01*
X0054204Y0039836D01*
X0054173Y0039788D01*
X0054139Y0039741D01*
X0054103Y0039697D01*
X0054063Y0039655D01*
X0054021Y0039615D01*
X0053977Y0039579D01*
X0053930Y0039545D01*
X0053882Y0039514D01*
X0053831Y0039486D01*
X0053779Y0039462D01*
X0053726Y0039441D01*
X0053671Y0039423D01*
X0053615Y0039408D01*
X0053559Y0039397D01*
X0053501Y0039390D01*
X0053444Y0039386D01*
X0053444Y0039443D01*
X0053500Y0039446D01*
X0053556Y0039454D01*
X0053611Y0039465D01*
X0053665Y0039479D01*
X0053719Y0039498D01*
X0053771Y0039519D01*
X0053821Y0039544D01*
X0053870Y0039572D01*
X0053916Y0039604D01*
X0053961Y0039638D01*
X0054003Y0039675D01*
X0054043Y0039715D01*
X0054080Y0039757D01*
X0054114Y0039802D01*
X0054146Y0039848D01*
X0054174Y0039897D01*
X0054199Y0039947D01*
X0054220Y0039999D01*
X0054239Y0040053D01*
X0054253Y0040107D01*
X0054264Y0040162D01*
X0054272Y0040218D01*
X0054275Y0040274D01*
X0054219Y0040274D01*
X0054216Y0040219D01*
X0054208Y0040165D01*
X0054197Y0040111D01*
X0054182Y0040059D01*
X0054163Y0040007D01*
X0054141Y0039957D01*
X0054116Y0039908D01*
X0054088Y0039861D01*
X0054056Y0039817D01*
X0054021Y0039774D01*
X0053984Y0039734D01*
X0053944Y0039697D01*
X0053901Y0039662D01*
X0053857Y0039630D01*
X0053810Y0039602D01*
X0053761Y0039577D01*
X0053711Y0039555D01*
X0053659Y0039536D01*
X0053607Y0039521D01*
X0053553Y0039510D01*
X0053499Y0039502D01*
X0053444Y0039499D01*
X0053444Y0039555D01*
X0053497Y0039559D01*
X0053550Y0039566D01*
X0053602Y0039578D01*
X0053653Y0039593D01*
X0053703Y0039612D01*
X0053751Y0039634D01*
X0053798Y0039660D01*
X0053842Y0039688D01*
X0053885Y0039720D01*
X0053925Y0039755D01*
X0053963Y0039793D01*
X0053998Y0039833D01*
X0054030Y0039876D01*
X0054058Y0039920D01*
X0054084Y0039967D01*
X0054106Y0040015D01*
X0054125Y0040065D01*
X0054140Y0040116D01*
X0054152Y0040168D01*
X0054159Y0040221D01*
X0054163Y0040274D01*
D19*
X0054398Y0040304D02*
X0054398Y0057981D01*
X0053375Y0059005D02*
X0052863Y0059005D01*
X0050422Y0059005D02*
X0047902Y0059005D01*
X0045461Y0059005D02*
X0042902Y0059005D01*
X0040461Y0059005D02*
X0037902Y0059005D01*
X0035501Y0059005D02*
X0034989Y0059005D01*
X0033926Y0058020D02*
X0033926Y0040304D01*
X0033928Y0040242D01*
X0033934Y0040181D01*
X0033943Y0040120D01*
X0033957Y0040059D01*
X0033974Y0040000D01*
X0033995Y0039942D01*
X0034020Y0039885D01*
X0034048Y0039830D01*
X0034079Y0039777D01*
X0034114Y0039726D01*
X0034152Y0039677D01*
X0034193Y0039630D01*
X0034236Y0039587D01*
X0034283Y0039546D01*
X0034332Y0039508D01*
X0034383Y0039473D01*
X0034436Y0039442D01*
X0034491Y0039414D01*
X0034548Y0039389D01*
X0034606Y0039368D01*
X0034665Y0039351D01*
X0034726Y0039337D01*
X0034787Y0039328D01*
X0034848Y0039322D01*
X0034910Y0039320D01*
X0034871Y0039320D02*
X0035461Y0039320D01*
X0037902Y0039320D02*
X0040422Y0039320D01*
X0042902Y0039320D02*
X0045422Y0039320D01*
X0047902Y0039320D02*
X0050422Y0039320D01*
X0052863Y0039320D02*
X0053375Y0039320D01*
M02*
