G75*
%MOIN*%
%OFA0B0*%
%FSLAX25Y25*%
%IPPOS*%
%LPD*%
%AMOC8*
5,1,8,0,0,1.08239X$1,22.5*
%
%ADD10C,0.00000*%
%ADD11R,0.03169X0.03169*%
%ADD12C,0.02400*%
%ADD13R,0.03562X0.03562*%
%ADD14R,0.10630X0.10630*%
%ADD15C,0.01600*%
D10*
X0004162Y0004162D02*
X0004162Y0114123D01*
X0137863Y0114123D01*
X0137863Y0004162D01*
X0004162Y0004162D01*
D11*
X0062843Y0030619D03*
X0027430Y0064162D03*
X0062843Y0071662D03*
D12*
X0062843Y0030619D01*
X0069162Y0025068D02*
X0006937Y0025068D01*
X0006937Y0006937D01*
X0069162Y0006937D01*
X0069162Y0025068D01*
X0069162Y0023350D02*
X0006937Y0023350D01*
X0006937Y0020952D02*
X0069162Y0020952D01*
X0069162Y0018553D02*
X0006937Y0018553D01*
X0006937Y0016155D02*
X0069162Y0016155D01*
X0069162Y0013756D02*
X0006937Y0013756D01*
X0006937Y0011358D02*
X0069162Y0011358D01*
X0069162Y0008959D02*
X0006937Y0008959D01*
X0027430Y0064162D02*
X0029162Y0064162D01*
X0029302Y0064164D01*
X0029442Y0064170D01*
X0029582Y0064180D01*
X0029722Y0064193D01*
X0029861Y0064211D01*
X0030000Y0064233D01*
X0030137Y0064258D01*
X0030275Y0064287D01*
X0030411Y0064320D01*
X0030546Y0064357D01*
X0030680Y0064398D01*
X0030813Y0064443D01*
X0030945Y0064491D01*
X0031075Y0064543D01*
X0031204Y0064598D01*
X0031331Y0064657D01*
X0031457Y0064720D01*
X0031581Y0064786D01*
X0031702Y0064855D01*
X0031822Y0064928D01*
X0031940Y0065005D01*
X0032055Y0065084D01*
X0032169Y0065167D01*
X0032279Y0065253D01*
X0032388Y0065342D01*
X0032494Y0065434D01*
X0032597Y0065529D01*
X0032698Y0065626D01*
X0032795Y0065727D01*
X0032890Y0065830D01*
X0032982Y0065936D01*
X0033071Y0066045D01*
X0033157Y0066155D01*
X0033240Y0066269D01*
X0033319Y0066384D01*
X0033396Y0066502D01*
X0033469Y0066622D01*
X0033538Y0066743D01*
X0033604Y0066867D01*
X0033667Y0066993D01*
X0033726Y0067120D01*
X0033781Y0067249D01*
X0033833Y0067379D01*
X0033881Y0067511D01*
X0033926Y0067644D01*
X0033967Y0067778D01*
X0034004Y0067913D01*
X0034037Y0068049D01*
X0034066Y0068187D01*
X0034091Y0068324D01*
X0034113Y0068463D01*
X0034131Y0068602D01*
X0034144Y0068742D01*
X0034154Y0068882D01*
X0034160Y0069022D01*
X0034162Y0069162D01*
X0034162Y0104162D01*
X0034164Y0104260D01*
X0034170Y0104358D01*
X0034179Y0104456D01*
X0034193Y0104553D01*
X0034210Y0104650D01*
X0034231Y0104746D01*
X0034256Y0104841D01*
X0034284Y0104935D01*
X0034317Y0105027D01*
X0034352Y0105119D01*
X0034392Y0105209D01*
X0034434Y0105297D01*
X0034481Y0105384D01*
X0034530Y0105468D01*
X0034583Y0105551D01*
X0034639Y0105631D01*
X0034699Y0105710D01*
X0034761Y0105786D01*
X0034826Y0105859D01*
X0034894Y0105930D01*
X0034965Y0105998D01*
X0035038Y0106063D01*
X0035114Y0106125D01*
X0035193Y0106185D01*
X0035273Y0106241D01*
X0035356Y0106294D01*
X0035440Y0106343D01*
X0035527Y0106390D01*
X0035615Y0106432D01*
X0035705Y0106472D01*
X0035797Y0106507D01*
X0035889Y0106540D01*
X0035983Y0106568D01*
X0036078Y0106593D01*
X0036174Y0106614D01*
X0036271Y0106631D01*
X0036368Y0106645D01*
X0036466Y0106654D01*
X0036564Y0106660D01*
X0036662Y0106662D01*
X0129162Y0106662D01*
D13*
X0046662Y0051662D03*
X0046662Y0046662D03*
X0041662Y0046662D03*
X0036662Y0046662D03*
X0031662Y0046662D03*
X0026662Y0046662D03*
X0021662Y0046662D03*
X0021662Y0041662D03*
X0026662Y0041662D03*
X0026662Y0036662D03*
X0021662Y0036662D03*
X0021662Y0031662D03*
X0026662Y0031662D03*
X0016662Y0031662D03*
X0011662Y0031662D03*
X0011662Y0036662D03*
X0016662Y0036662D03*
X0016662Y0041662D03*
X0011662Y0041662D03*
X0011662Y0046662D03*
X0016662Y0046662D03*
X0016662Y0051662D03*
X0011662Y0051662D03*
X0011662Y0056662D03*
X0016662Y0056662D03*
X0021662Y0056662D03*
X0026662Y0056662D03*
X0026662Y0051662D03*
X0021662Y0051662D03*
X0031662Y0051662D03*
X0036662Y0051662D03*
X0041662Y0051662D03*
X0061662Y0021662D03*
D14*
X0012981Y0012981D03*
X0012430Y0105737D03*
X0129162Y0106662D03*
X0129162Y0011662D03*
D15*
X0135488Y0012155D02*
X0072666Y0012155D01*
X0072666Y0013753D02*
X0135488Y0013753D01*
X0135488Y0015352D02*
X0072666Y0015352D01*
X0072666Y0016950D02*
X0135488Y0016950D01*
X0135488Y0018549D02*
X0072666Y0018549D01*
X0072666Y0020147D02*
X0135488Y0020147D01*
X0135488Y0021746D02*
X0072666Y0021746D01*
X0072666Y0023344D02*
X0135488Y0023344D01*
X0135488Y0024943D02*
X0072666Y0024943D01*
X0072666Y0026541D02*
X0135488Y0026541D01*
X0135488Y0028140D02*
X0072666Y0028140D01*
X0072666Y0028965D02*
X0066228Y0028965D01*
X0066228Y0032949D01*
X0065843Y0033333D01*
X0065843Y0068948D01*
X0066228Y0069332D01*
X0066228Y0073992D01*
X0065173Y0075046D01*
X0060513Y0075046D01*
X0059459Y0073992D01*
X0059459Y0069332D01*
X0059843Y0068948D01*
X0059843Y0033333D01*
X0059459Y0032949D01*
X0059459Y0028965D01*
X0006537Y0028965D01*
X0006537Y0111748D01*
X0122047Y0111748D01*
X0122047Y0109662D01*
X0035568Y0109662D01*
X0033547Y0108825D01*
X0033547Y0108825D01*
X0032000Y0107278D01*
X0032000Y0107278D01*
X0031162Y0105256D01*
X0031162Y0069162D01*
X0031124Y0068772D01*
X0030825Y0068051D01*
X0030273Y0067499D01*
X0029944Y0067363D01*
X0029760Y0067546D01*
X0025100Y0067546D01*
X0024046Y0066492D01*
X0024046Y0061832D01*
X0025100Y0060778D01*
X0029760Y0060778D01*
X0030144Y0061162D01*
X0030754Y0061162D01*
X0033694Y0062380D01*
X0035944Y0064631D01*
X0037162Y0067571D01*
X0037162Y0103662D01*
X0122047Y0103662D01*
X0122047Y0100602D01*
X0123102Y0099547D01*
X0135223Y0099547D01*
X0135488Y0099813D01*
X0135488Y0006537D01*
X0072666Y0006537D01*
X0072666Y0028965D01*
X0066228Y0029738D02*
X0135488Y0029738D01*
X0135488Y0031337D02*
X0066228Y0031337D01*
X0066228Y0032935D02*
X0135488Y0032935D01*
X0135488Y0034534D02*
X0065843Y0034534D01*
X0065843Y0036132D02*
X0135488Y0036132D01*
X0135488Y0037731D02*
X0065843Y0037731D01*
X0065843Y0039329D02*
X0135488Y0039329D01*
X0135488Y0040928D02*
X0065843Y0040928D01*
X0065843Y0042526D02*
X0135488Y0042526D01*
X0135488Y0044125D02*
X0065843Y0044125D01*
X0065843Y0045723D02*
X0135488Y0045723D01*
X0135488Y0047322D02*
X0065843Y0047322D01*
X0065843Y0048921D02*
X0135488Y0048921D01*
X0135488Y0050519D02*
X0065843Y0050519D01*
X0065843Y0052118D02*
X0135488Y0052118D01*
X0135488Y0053716D02*
X0065843Y0053716D01*
X0065843Y0055315D02*
X0135488Y0055315D01*
X0135488Y0056913D02*
X0065843Y0056913D01*
X0065843Y0058512D02*
X0135488Y0058512D01*
X0135488Y0060110D02*
X0065843Y0060110D01*
X0065843Y0061709D02*
X0135488Y0061709D01*
X0135488Y0063307D02*
X0065843Y0063307D01*
X0065843Y0064906D02*
X0135488Y0064906D01*
X0135488Y0066504D02*
X0065843Y0066504D01*
X0065843Y0068103D02*
X0135488Y0068103D01*
X0135488Y0069701D02*
X0066228Y0069701D01*
X0066228Y0071300D02*
X0135488Y0071300D01*
X0135488Y0072898D02*
X0066228Y0072898D01*
X0065723Y0074497D02*
X0135488Y0074497D01*
X0135488Y0076095D02*
X0037162Y0076095D01*
X0037162Y0074497D02*
X0059964Y0074497D01*
X0059459Y0072898D02*
X0037162Y0072898D01*
X0037162Y0071300D02*
X0059459Y0071300D01*
X0059459Y0069701D02*
X0037162Y0069701D01*
X0037162Y0068103D02*
X0059843Y0068103D01*
X0059843Y0066504D02*
X0036720Y0066504D01*
X0036058Y0064906D02*
X0059843Y0064906D01*
X0059843Y0063307D02*
X0034621Y0063307D01*
X0033694Y0062380D02*
X0033694Y0062380D01*
X0032073Y0061709D02*
X0059843Y0061709D01*
X0059843Y0060110D02*
X0006537Y0060110D01*
X0006537Y0058512D02*
X0059843Y0058512D01*
X0059843Y0056913D02*
X0006537Y0056913D01*
X0006537Y0055315D02*
X0059843Y0055315D01*
X0059843Y0053716D02*
X0006537Y0053716D01*
X0006537Y0052118D02*
X0059843Y0052118D01*
X0059843Y0050519D02*
X0006537Y0050519D01*
X0006537Y0048921D02*
X0059843Y0048921D01*
X0059843Y0047322D02*
X0006537Y0047322D01*
X0006537Y0045723D02*
X0059843Y0045723D01*
X0059843Y0044125D02*
X0006537Y0044125D01*
X0006537Y0042526D02*
X0059843Y0042526D01*
X0059843Y0040928D02*
X0006537Y0040928D01*
X0006537Y0039329D02*
X0059843Y0039329D01*
X0059843Y0037731D02*
X0006537Y0037731D01*
X0006537Y0036132D02*
X0059843Y0036132D01*
X0059843Y0034534D02*
X0006537Y0034534D01*
X0006537Y0032935D02*
X0059459Y0032935D01*
X0059459Y0031337D02*
X0006537Y0031337D01*
X0006537Y0029738D02*
X0059459Y0029738D01*
X0072666Y0010556D02*
X0135488Y0010556D01*
X0135488Y0008958D02*
X0072666Y0008958D01*
X0072666Y0007359D02*
X0135488Y0007359D01*
X0135488Y0077694D02*
X0037162Y0077694D01*
X0037162Y0079292D02*
X0135488Y0079292D01*
X0135488Y0080891D02*
X0037162Y0080891D01*
X0037162Y0082489D02*
X0135488Y0082489D01*
X0135488Y0084088D02*
X0037162Y0084088D01*
X0037162Y0085686D02*
X0135488Y0085686D01*
X0135488Y0087285D02*
X0037162Y0087285D01*
X0037162Y0088883D02*
X0135488Y0088883D01*
X0135488Y0090482D02*
X0037162Y0090482D01*
X0037162Y0092080D02*
X0135488Y0092080D01*
X0135488Y0093679D02*
X0037162Y0093679D01*
X0037162Y0095277D02*
X0135488Y0095277D01*
X0135488Y0096876D02*
X0037162Y0096876D01*
X0037162Y0098474D02*
X0135488Y0098474D01*
X0122576Y0100073D02*
X0037162Y0100073D01*
X0037162Y0101671D02*
X0122047Y0101671D01*
X0122047Y0103270D02*
X0037162Y0103270D01*
X0031162Y0103270D02*
X0006537Y0103270D01*
X0006537Y0104868D02*
X0031162Y0104868D01*
X0031664Y0106467D02*
X0006537Y0106467D01*
X0006537Y0108065D02*
X0032787Y0108065D01*
X0031162Y0101671D02*
X0006537Y0101671D01*
X0006537Y0100073D02*
X0031162Y0100073D01*
X0031162Y0098474D02*
X0006537Y0098474D01*
X0006537Y0096876D02*
X0031162Y0096876D01*
X0031162Y0095277D02*
X0006537Y0095277D01*
X0006537Y0093679D02*
X0031162Y0093679D01*
X0031162Y0092080D02*
X0006537Y0092080D01*
X0006537Y0090482D02*
X0031162Y0090482D01*
X0031162Y0088883D02*
X0006537Y0088883D01*
X0006537Y0087285D02*
X0031162Y0087285D01*
X0031162Y0085686D02*
X0006537Y0085686D01*
X0006537Y0084088D02*
X0031162Y0084088D01*
X0031162Y0082489D02*
X0006537Y0082489D01*
X0006537Y0080891D02*
X0031162Y0080891D01*
X0031162Y0079292D02*
X0006537Y0079292D01*
X0006537Y0077694D02*
X0031162Y0077694D01*
X0031162Y0076095D02*
X0006537Y0076095D01*
X0006537Y0074497D02*
X0031162Y0074497D01*
X0031162Y0072898D02*
X0006537Y0072898D01*
X0006537Y0071300D02*
X0031162Y0071300D01*
X0031162Y0069701D02*
X0006537Y0069701D01*
X0006537Y0068103D02*
X0030847Y0068103D01*
X0035944Y0064631D02*
X0035944Y0064631D01*
X0024046Y0064906D02*
X0006537Y0064906D01*
X0006537Y0066504D02*
X0024058Y0066504D01*
X0024046Y0063307D02*
X0006537Y0063307D01*
X0006537Y0061709D02*
X0024169Y0061709D01*
X0006537Y0109664D02*
X0122047Y0109664D01*
X0122047Y0111262D02*
X0006537Y0111262D01*
M02*
