%
M48
M72
T01C0.01969
T02C0.02362
T03C0.07087
%
T01
X62843Y30619
X27430Y64162
X62843Y71662
T02
X46662Y51662
X46662Y46662
X41662Y46662
X36662Y46662
X31662Y46662
X26662Y46662
X21662Y46662
X21662Y41662
X26662Y41662
X26662Y36662
X21662Y36662
X21662Y31662
X26662Y31662
X16662Y31662
X11662Y31662
X11662Y36662
X16662Y36662
X16662Y41662
X11662Y41662
X11662Y46662
X16662Y46662
X16662Y51662
X11662Y51662
X11662Y56662
X16662Y56662
X21662Y56662
X26662Y56662
X26662Y51662
X21662Y51662
X31662Y51662
X36662Y51662
X41662Y51662
X61662Y21662
T03
X12981Y12981
X12430Y105737
X129162Y106662
X129162Y11662
M30
